<svg width="512" height="350" viewBox="0 0 512 350" fill="none" xmlns="http://www.w3.org/2000/svg">
<rect width="512" height="350" fill="#C0C0C0"/>
<path fill-rule="evenodd" clip-rule="evenodd" d="M427.449 223.925H415.985L415.673 225.64H420.508L418.792 239.131H420.82L422.614 225.64H427.059L427.449 223.925ZM435.403 233.906L432.986 223.925H431.582L426.357 239.131H428.073L432.284 227.356L434.701 239.131L440.94 227.356V239.131H442.968V223.925H440.94L435.403 233.906ZM120.424 278.51L107.011 253.245H95.5471L116.681 292H123.232L144.677 253.245H132.902L120.424 278.51ZM170.958 273.285V292H181.33V253.245H170.958V273.285ZM283.256 292H311.954V285.45H294.017V275.079H310.94V268.45H294.017V259.873H311.954V253.245H283.256V292ZM429.086 205.21C429.086 190.706 346.735 178.931 245.043 178.931C143.352 178.931 61 190.706 61 205.21C61 219.714 143.43 231.489 245.043 231.489C346.657 231.489 429.086 219.792 429.086 205.21ZM196.147 205.6C196.147 200.765 215.019 196.944 238.337 196.944C261.654 196.944 280.448 200.843 280.448 205.522C280.448 210.2 261.654 214.177 238.337 214.177C215.019 214.177 196.225 210.278 196.225 205.6H196.147ZM366.933 253.089C351.882 253.089 339.638 261.744 339.638 272.427C339.638 283.11 351.882 291.766 366.933 291.766C381.984 291.766 394.227 283.188 394.227 272.427C394.227 261.744 381.984 253.089 366.933 253.089ZM366.933 284.748C357.965 284.748 350.712 279.289 350.712 272.427C350.712 265.643 357.965 260.185 366.933 260.185C375.901 260.185 383.154 265.643 383.154 272.427C383.154 279.212 375.901 284.748 366.933 284.748ZM228.511 253.245H212.134V292H228.511C228.511 292 254.557 292 254.557 272.817C254.557 253.635 228.511 253.323 228.511 253.323V253.245ZM223.052 285.372V259.873C223.052 259.873 243.484 258.547 243.484 272.739C243.484 286.853 223.13 285.372 223.13 285.372H223.052ZM210.73 100.875C210.863 93.9363 209.808 87.0264 207.611 80.4441H208.936L243.873 178.619L329.656 80.3661H375.901C375.901 80.3661 411.93 79.4304 411.93 102.59C411.93 125.75 381.984 134.717 362.8 134.717H354.533L365.295 88.3979H327.629L311.72 155.771H363.034C412.164 155.771 451 128.791 451 100.875C450.922 59.5459 387.677 59 387.677 59H308.133L257.677 122.631L238.025 59H94.5333L89.3083 80.4441H137.269C144.053 80.6001 171.582 82.3156 171.582 102.59C171.582 125.75 141.636 134.717 122.53 134.717H114.263L124.947 88.3979H87.2807L71.3719 155.771H122.686C171.816 155.771 210.652 128.791 210.652 100.875H210.73Z" fill="black"/>
</svg>
